<?xml version="1.0" encoding="UTF-8"?>
<!DOCTYPE svg PUBLIC "-//W3C//DTD SVG 1.1//EN" "http://www.w3.org/Graphics/SVG/1.1/DTD/svg11.dtd">
<svg xmlns="http://www.w3.org/2000/svg" version="1.1" width="32px" height="32px" style="shape-rendering:geometricPrecision; text-rendering:geometricPrecision; image-rendering:optimizeQuality; fill-rule:evenodd; clip-rule:evenodd" xmlns:xlink="http://www.w3.org/1999/xlink">
<g><path style="opacity:0.897" fill="#969591" d="M 9.5,-0.5 C 12.5,-0.5 15.5,-0.5 18.5,-0.5C 18.9175,0.221579 19.5842,0.721579 20.5,1C 19.5842,1.27842 18.9175,1.77842 18.5,2.5C 15.0581,1.82827 12.3914,2.82827 10.5,5.5C 10.1667,5.5 9.83333,5.5 9.5,5.5C 7.06416,4.42835 4.89749,5.09502 3,7.5C 2.53566,6.90558 2.36899,6.23891 2.5,5.5C 4.2752,2.78913 6.60854,0.789131 9.5,-0.5 Z"/></g>
<g><path style="opacity:1" fill="#392b21" d="M 18.5,2.5 C 19.925,3.92203 20.925,5.5887 21.5,7.5C 20.1805,6.05817 18.5138,5.39151 16.5,5.5C 14.302,5.12012 12.6354,5.78679 11.5,7.5C 10.6618,7.15829 10.3284,6.49162 10.5,5.5C 12.3914,2.82827 15.0581,1.82827 18.5,2.5 Z"/></g>
<g><path style="opacity:0.985" fill="#9e9c99" d="M 18.5,-0.5 C 19.5,-0.5 20.5,-0.5 21.5,-0.5C 25.1604,1.16041 27.8271,3.82707 29.5,7.5C 29.719,8.67504 29.3857,9.67504 28.5,10.5C 26.2534,9.62578 23.9201,9.29245 21.5,9.5C 21.5,8.83333 21.5,8.16667 21.5,7.5C 20.925,5.5887 19.925,3.92203 18.5,2.5C 18.9175,1.77842 19.5842,1.27842 20.5,1C 19.5842,0.721579 18.9175,0.221579 18.5,-0.5 Z"/></g>
<g><path style="opacity:1" fill="#a47965" d="M 16.5,5.5 C 15.6016,6.15767 14.6016,6.82434 13.5,7.5C 13.8627,8.18346 14.1961,8.85013 14.5,9.5C 12.8212,9.71481 11.8212,9.04814 11.5,7.5C 12.6354,5.78679 14.302,5.12012 16.5,5.5 Z"/></g>
<g><path style="opacity:0.994" fill="#9c9b98" d="M 9.5,5.5 C 9.82378,9.9569 9.82378,14.2902 9.5,18.5C 6.37767,19.5612 3.37767,20.8946 0.5,22.5C 0.5,21.8333 0.166667,21.5 -0.5,21.5C -0.5,17.5 -0.5,13.5 -0.5,9.5C 0.5,8.16667 1.5,6.83333 2.5,5.5C 2.36899,6.23891 2.53566,6.90558 3,7.5C 4.89749,5.09502 7.06416,4.42835 9.5,5.5 Z"/></g>
<g><path style="opacity:1" fill="#6e4e41" d="M 9.5,5.5 C 9.83333,5.5 10.1667,5.5 10.5,5.5C 10.3284,6.49162 10.6618,7.15829 11.5,7.5C 11.8212,9.04814 12.8212,9.71481 14.5,9.5C 16.6547,9.37201 18.6547,9.87201 20.5,11C 19.552,11.4828 18.552,11.6495 17.5,11.5C 16.8826,11.3893 16.3826,11.056 16,10.5C 16.0539,13.1906 14.8872,15.0239 12.5,16C 14.2792,18.8221 16.6126,19.3221 19.5,17.5C 19.5,18.1667 19.5,18.8333 19.5,19.5C 19.6716,20.4916 19.3382,21.1583 18.5,21.5C 18.631,20.7611 18.4643,20.0944 18,19.5C 16.324,20.0611 14.9906,21.0611 14,22.5C 13.0228,21.2264 12.1894,21.2264 11.5,22.5C 10.8333,21.1667 10.1667,19.8333 9.5,18.5C 9.82378,14.2902 9.82378,9.9569 9.5,5.5 Z"/></g>
<g><path style="opacity:1" fill="#caa695" d="M 16.5,5.5 C 18.5138,5.39151 20.1805,6.05817 21.5,7.5C 21.5,8.16667 21.5,8.83333 21.5,9.5C 21.6747,11.6208 21.3414,13.6208 20.5,15.5C 19.5116,14.205 18.5116,12.8717 17.5,11.5C 18.552,11.6495 19.552,11.4828 20.5,11C 18.6547,9.87201 16.6547,9.37201 14.5,9.5C 14.1961,8.85013 13.8627,8.18346 13.5,7.5C 14.6016,6.82434 15.6016,6.15767 16.5,5.5 Z"/></g>
<g><path style="opacity:0.975" fill="#a2a19e" d="M 29.5,7.5 C 30.1667,8.16667 30.8333,8.83333 31.5,9.5C 31.5,13.5 31.5,17.5 31.5,21.5C 30.5,22.8333 29.5,24.1667 28.5,25.5C 26.0229,22.685 23.0229,20.685 19.5,19.5C 19.5,18.8333 19.5,18.1667 19.5,17.5C 19.8333,16.8333 20.1667,16.1667 20.5,15.5C 21.3414,13.6208 21.6747,11.6208 21.5,9.5C 23.9201,9.29245 26.2534,9.62578 28.5,10.5C 29.3857,9.67504 29.719,8.67504 29.5,7.5 Z"/></g>
<g><path style="opacity:1" fill="#b38576" d="M 17.5,11.5 C 18.5116,12.8717 19.5116,14.205 20.5,15.5C 20.1667,16.1667 19.8333,16.8333 19.5,17.5C 16.6126,19.3221 14.2792,18.8221 12.5,16C 14.8872,15.0239 16.0539,13.1906 16,10.5C 16.3826,11.056 16.8826,11.3893 17.5,11.5 Z"/></g>
<g><path style="opacity:1" fill="#967461" d="M 18.5,21.5 C 17.9517,24.0838 16.285,25.0838 13.5,24.5C 12.5,24.1667 11.8333,23.5 11.5,22.5C 12.1894,21.2264 13.0228,21.2264 14,22.5C 14.9906,21.0611 16.324,20.0611 18,19.5C 18.4643,20.0944 18.631,20.7611 18.5,21.5 Z"/></g>
<g><path style="opacity:0.983" fill="#1d1c21" d="M 19.5,19.5 C 23.0229,20.685 26.0229,22.685 28.5,25.5C 26.7248,28.2109 24.3915,30.2109 21.5,31.5C 18.1667,31.5 14.8333,31.5 11.5,31.5C 11.3505,30.448 11.5172,29.448 12,28.5C 13.0113,29.3366 14.1779,29.67 15.5,29.5C 15.6347,27.4458 14.968,25.7791 13.5,24.5C 16.285,25.0838 17.9517,24.0838 18.5,21.5C 19.3382,21.1583 19.6716,20.4916 19.5,19.5 Z"/></g>
<g><path style="opacity:0.923" fill="#121115" d="M 9.5,18.5 C 10.1667,19.8333 10.8333,21.1667 11.5,22.5C 11.8333,23.5 12.5,24.1667 13.5,24.5C 14.968,25.7791 15.6347,27.4458 15.5,29.5C 14.1779,29.67 13.0113,29.3366 12,28.5C 11.5172,29.448 11.3505,30.448 11.5,31.5C 10.8333,31.5 10.1667,31.5 9.5,31.5C 5.52776,29.5278 2.52776,26.5278 0.5,22.5C 3.37767,20.8946 6.37767,19.5612 9.5,18.5 Z"/></g>
</svg>
