<svg version="1.1" id="Layer_1" xmlns="http://www.w3.org/2000/svg" xmlns:xlink="http://www.w3.org/1999/xlink" x="0px" y="0px"
	 width="100%" viewBox="0 0 96 96" enable-background="new 0 0 96 96" xml:space="preserve">
<path fill="#000000" opacity="1.000000" stroke="none" 
	d="
M40.000000,97.000000 
	C27.015724,97.000000 14.031448,97.000000 1.023586,97.000000 
	C1.023586,65.054443 1.023586,33.108868 1.023586,1.081645 
	C32.906677,1.081645 64.813629,1.081645 96.860291,1.081645 
	C96.860291,32.999596 96.860291,64.999702 96.860291,97.000000 
	C85.576530,97.000000 74.256920,97.000000 62.140869,96.721260 
	C67.038857,92.918213 72.526726,89.455872 76.336380,83.430672 
	C83.132225,72.682625 78.796860,62.975533 74.865829,52.757496 
	C74.602051,52.310017 74.302963,52.132751 73.998665,51.980232 
	C73.993462,52.004974 74.042412,51.992290 73.953186,51.690094 
	C72.928673,50.571548 71.993385,49.755196 70.914703,48.591423 
	C68.796700,42.821484 66.822090,37.398956 64.919479,31.616158 
	C65.352928,29.884186 65.714371,28.512484 66.405968,26.945778 
	C67.844124,23.387596 68.961426,20.027449 70.057922,16.660524 
	C71.645416,11.785924 70.601524,8.742639 66.905701,7.414497 
	C63.534966,6.203182 60.525368,8.296372 58.746986,12.985970 
	C58.304928,13.357314 58.121017,13.652068 57.589241,13.850940 
	C52.161812,11.130514 50.368412,11.736926 47.572929,17.087160 
	C47.016869,19.562199 46.204067,22.006048 46.725609,24.120823 
	C47.718918,28.148521 49.474216,31.988300 50.582649,36.082787 
	C48.805683,40.490646 47.359196,44.721828 45.656189,49.032742 
	C44.963169,49.379196 44.526676,49.645916 44.050129,49.470497 
	C44.006931,47.561535 44.370281,45.968464 43.918247,44.656281 
	C43.163364,42.464977 42.408245,39.554325 40.711643,38.570873 
	C37.980217,36.987583 34.726841,37.485706 32.562973,40.957100 
	C31.453018,42.316586 30.696796,43.628170 29.582008,44.835861 
	C26.839342,44.297073 24.043480,42.912258 22.195187,43.713440 
	C20.576906,44.414909 19.398075,47.497349 19.138201,49.661655 
	C18.690166,53.393017 19.106276,57.228138 19.086971,61.431683 
	C19.062487,63.232185 19.110798,64.620728 19.088150,66.423813 
	C20.196814,80.203300 26.802467,89.684273 39.148621,95.124695 
	C39.616936,95.331055 39.724388,96.356331 40.000000,97.000000 
z"/>
<path fill="#FEDB5C" opacity="1.000000" stroke="none" 
	d="
M74.830505,53.027714 
	C78.796860,62.975533 83.132225,72.682625 76.336380,83.430672 
	C72.526726,89.455872 67.038857,92.918213 61.672211,96.721260 
	C54.979053,97.000000 47.958103,97.000000 40.468578,97.000000 
	C39.724388,96.356331 39.616936,95.331055 39.148621,95.124695 
	C26.802467,89.684273 20.196814,80.203300 19.442097,66.497528 
	C22.875334,68.361794 25.842634,68.314804 29.166769,66.585541 
	C30.478670,65.903061 32.801346,65.784904 33.988735,66.512054 
	C36.999458,68.355812 39.425449,67.474625 42.426155,66.496658 
	C46.070492,65.308937 50.075314,65.227318 55.083450,64.498451 
	C47.870026,74.930550 46.720047,79.212860 49.484112,84.769211 
	C50.743446,74.868973 53.612995,66.541443 64.508461,63.922871 
	C63.459953,63.302250 62.725891,63.040089 61.988106,63.029144 
	C58.161732,62.972412 54.320126,63.179455 50.511532,62.907120 
	C46.906326,62.649323 43.966221,61.131233 44.022743,56.858395 
	C44.080288,52.508366 47.074810,51.953651 50.581673,51.983521 
	C58.401375,52.050129 66.222099,51.996769 74.042412,51.992290 
	C74.042412,51.992290 73.993462,52.004974 74.056068,52.210522 
	C74.297081,52.688465 74.534355,52.892345 74.830505,53.027714 
z"/>
<path fill="#EF9846" opacity="1.000000" stroke="none" 
	d="
M73.953186,51.690094 
	C66.222099,51.996769 58.401375,52.050129 50.581673,51.983521 
	C47.074810,51.953651 44.080288,52.508366 44.022743,56.858395 
	C43.966221,61.131233 46.906326,62.649323 50.511532,62.907120 
	C54.320126,63.179455 58.161732,62.972412 61.988106,63.029144 
	C62.725891,63.040089 63.459953,63.302250 64.508461,63.922871 
	C53.612995,66.541443 50.743446,74.868973 49.484112,84.769211 
	C46.720047,79.212860 47.870026,74.930550 55.083450,64.498451 
	C50.075314,65.227318 46.070492,65.308937 42.426155,66.496658 
	C39.425449,67.474625 36.999458,68.355812 33.988735,66.512054 
	C32.801346,65.784904 30.478670,65.903061 29.166769,66.585541 
	C25.842634,68.314804 22.875334,68.361794 19.513056,66.082985 
	C19.110798,64.620728 19.062487,63.232185 19.326763,61.667370 
	C21.989439,62.523880 24.413355,64.535400 26.672691,64.364990 
	C30.253199,64.094917 30.044182,60.610096 30.004536,57.751244 
	C29.945320,53.481274 29.958305,49.210300 29.940575,44.939754 
	C30.696796,43.628170 31.453018,42.316586 32.594936,41.429134 
	C32.989120,44.686249 32.994801,47.519245 33.006851,50.352211 
	C33.020317,53.518318 32.775696,56.714317 33.130363,59.842091 
	C33.486225,62.980412 35.402428,65.223785 38.840557,64.735619 
	C42.271992,64.248390 41.572342,61.863235 41.494854,59.091927 
	C41.410046,56.058723 43.147118,52.974579 44.090179,49.912636 
	C44.526676,49.645916 44.963169,49.379196 46.108814,49.055187 
	C49.665718,48.997902 52.513477,48.997902 56.517864,48.997902 
	C54.323875,43.873085 52.618504,39.889595 50.913132,35.906105 
	C49.474216,31.988300 47.718918,28.148521 46.725609,24.120823 
	C46.204067,22.006048 47.016869,19.562199 47.618908,17.483265 
	C50.446365,24.728769 52.667824,31.841461 55.367813,38.767609 
	C59.432640,49.194904 59.574917,49.139442 71.058090,48.938839 
	C71.993385,49.755196 72.928673,50.571548 73.953186,51.690094 
z"/>
<path fill="#FEDB5C" opacity="1.000000" stroke="none" 
	d="
M70.914703,48.591423 
	C59.574917,49.139442 59.432640,49.194904 55.367813,38.767609 
	C52.667824,31.841461 50.446365,24.728769 47.964722,17.303474 
	C50.368412,11.736926 52.161812,11.130514 57.620453,14.240170 
	C60.282181,20.475664 62.564827,26.226046 64.847473,31.976429 
	C66.822090,37.398956 68.796700,42.821484 70.914703,48.591423 
z"/>
<path fill="#FEDB5C" opacity="1.000000" stroke="none" 
	d="
M44.050125,49.470497 
	C43.147118,52.974579 41.410046,56.058723 41.494854,59.091927 
	C41.572342,61.863235 42.271992,64.248390 38.840557,64.735619 
	C35.402428,65.223785 33.486225,62.980412 33.130363,59.842091 
	C32.775696,56.714317 33.020317,53.518318 33.006851,50.352211 
	C32.994801,47.519245 32.989120,44.686249 32.948669,41.381233 
	C34.726841,37.485706 37.980217,36.987583 40.711643,38.570873 
	C42.408245,39.554325 43.163364,42.464977 43.918247,44.656281 
	C44.370281,45.968464 44.006931,47.561535 44.050125,49.470497 
z"/>
<path fill="#FEDB5C" opacity="1.000000" stroke="none" 
	d="
M29.582008,44.835861 
	C29.958305,49.210300 29.945320,53.481274 30.004536,57.751244 
	C30.044182,60.610096 30.253199,64.094917 26.672691,64.364990 
	C24.413355,64.535400 21.989439,62.523880 19.399557,61.255405 
	C19.106276,57.228138 18.690166,53.393017 19.138201,49.661655 
	C19.398075,47.497349 20.576906,44.414909 22.195187,43.713440 
	C24.043480,42.912258 26.839342,44.297073 29.582008,44.835861 
z"/>
<path fill="#FEDB5C" opacity="1.000000" stroke="none" 
	d="
M59.005142,12.909379 
	C60.525368,8.296372 63.534966,6.203182 66.905701,7.414497 
	C70.601524,8.742639 71.645416,11.785924 70.057922,16.660524 
	C68.961426,20.027449 67.844124,23.387596 66.125549,26.721645 
	C63.345028,22.098137 61.175083,17.503757 59.005142,12.909379 
z"/>
<path fill="#FEDA5C" opacity="1.000000" stroke="none" 
	d="
M50.582649,36.082787 
	C52.618504,39.889595 54.323875,43.873085 56.517864,48.997902 
	C52.513477,48.997902 49.665718,48.997902 46.365334,48.975456 
	C47.359196,44.721828 48.805683,40.490646 50.582649,36.082787 
z"/>
<path fill="#F09C47" opacity="1.000000" stroke="none" 
	d="
M58.746986,12.985970 
	C61.175083,17.503757 63.345028,22.098137 65.795395,26.916649 
	C65.714371,28.512484 65.352928,29.884186 64.919479,31.616158 
	C62.564827,26.226046 60.282181,20.475664 57.968323,14.336051 
	C58.121017,13.652068 58.304928,13.357314 58.746986,12.985970 
z"/>
<path fill="#EF9846" opacity="1.000000" stroke="none" 
	d="
M74.865829,52.757496 
	C74.534355,52.892345 74.297081,52.688465 74.061272,52.185776 
	C74.302963,52.132751 74.602051,52.310017 74.865829,52.757496 
z"/>
</svg>