<?xml version="1.0" standalone="no"?>
<!DOCTYPE svg PUBLIC "-//W3C//DTD SVG 20010904//EN"
 "http://www.w3.org/TR/2001/REC-SVG-20010904/DTD/svg10.dtd">
<svg version="1.0" xmlns="http://www.w3.org/2000/svg"
 width="32.000000pt" height="32.000000pt" viewBox="0 0 32.000000 32.000000"
 preserveAspectRatio="xMidYMid meet">

<g transform="translate(0.000000,32.000000) scale(0.100000,-0.100000)"
fill="#000000" stroke="none">
<path d="M0 160 l0 -160 160 0 160 0 0 160 0 160 -160 0 -160 0 0 -160z m136
56 c23 -18 13 -32 -13 -18 -13 7 -24 7 -34 1 -8 -6 -10 -12 -4 -15 44 -19 60
-33 63 -52 4 -29 -36 -49 -67 -33 -32 18 -25 30 14 24 46 -7 46 12 0 31 -39
17 -47 48 -17 65 23 14 35 13 58 -3z m105 4 c29 -16 23 -30 -11 -23 -38 7 -40
-14 -3 -28 48 -18 54 -41 18 -65 -21 -14 -31 -15 -50 -6 -37 17 -30 32 10 25
46 -7 46 12 0 31 -51 22 -44 61 13 75 2 1 12 -4 23 -9z"/>
</g>
</svg>
