<svg version="1.1" id="Layer_1" xmlns="http://www.w3.org/2000/svg" xmlns:xlink="http://www.w3.org/1999/xlink" x="0px" y="0px"
	 width="100%" viewBox="0 0 512 512" enable-background="new 0 0 512 512" xml:space="preserve">
<path fill="#000000" opacity="1.000000" stroke="none" 
	d="
M246.000000,513.000000 
	C164.350891,513.000000 82.701790,513.000000 1.026344,513.000000 
	C1.026344,342.387604 1.026344,171.775192 1.026344,1.081398 
	C171.575668,1.081398 342.151398,1.081398 512.863525,1.081398 
	C512.863525,171.666595 512.863525,342.333282 512.863525,513.000000 
	C439.898743,513.000000 366.914398,513.000000 293.129974,512.669189 
	C296.677155,511.302277 301.165924,510.659210 305.344696,509.155060 
	C317.154419,504.904114 329.030457,500.744110 340.526520,495.736023 
	C360.059082,487.226929 374.517822,472.060730 388.462891,456.677826 
	C397.142303,447.103546 403.582581,435.830139 408.760925,423.814392 
	C415.464600,408.259277 420.322235,392.085785 419.617371,375.314484 
	C419.065735,362.188507 415.579224,349.086243 412.478577,336.194275 
	C409.203583,322.577332 405.082916,309.144928 400.830963,295.791351 
	C399.193909,290.649994 396.177368,285.947876 393.822144,280.782806 
	C393.565369,280.348450 393.275848,280.176910 392.992157,280.004456 
	C392.998016,280.003510 392.996338,280.016388 392.949768,279.749420 
	C392.600800,279.311493 392.298370,279.140564 391.992493,278.988281 
	C391.989014,279.006958 392.026520,279.001160 392.012512,278.641571 
	C388.931946,275.177094 386.034302,271.877777 382.749146,269.024567 
	C379.745758,266.416107 376.323242,264.290283 373.186035,261.564362 
	C373.857483,258.339111 374.442383,255.504044 374.996796,252.663025 
	C378.679871,233.789291 382.366425,214.916229 386.030518,196.038803 
	C387.603912,187.932724 389.152679,179.821655 390.665710,171.704132 
	C393.130188,158.481949 395.582794,145.257446 397.990540,132.024857 
	C400.255188,119.578903 402.000610,107.018036 404.796783,94.694313 
	C408.448944,78.597855 403.939209,57.885494 381.600067,55.226547 
	C366.465790,53.425171 353.780731,58.492207 349.063232,75.422935 
	C347.461273,81.172325 346.756683,87.166077 345.472595,93.010933 
	C343.043335,104.068352 340.264771,115.053497 338.045715,126.151535 
	C334.996582,141.400589 332.357788,156.731369 329.496307,172.018372 
	C326.693726,186.990616 323.859100,201.956970 320.979309,216.914536 
	C320.186432,221.032822 320.077759,225.722870 317.880066,228.936798 
	C316.849426,230.444046 311.604309,229.058075 308.268829,229.003006 
	C300.960266,228.882324 300.858063,228.697449 298.971405,221.471054 
	C294.450195,204.153946 289.778564,186.876099 285.256104,169.559311 
	C280.442535,151.127823 275.891235,132.626450 270.928680,114.235657 
	C266.143036,96.500481 261.239258,78.788063 255.884048,61.219063 
	C252.613922,50.490700 241.826111,39.179596 227.051407,41.123505 
	C223.016312,41.654404 219.241791,43.922318 215.227493,44.899174 
	C202.201263,48.069023 197.135406,65.886452 199.327942,74.487999 
	C204.259415,93.834709 209.774887,113.031906 214.961990,132.314346 
	C218.063187,143.842651 221.020248,155.410019 223.993820,166.972260 
	C229.254395,187.427032 234.512817,207.882477 239.702332,228.355362 
	C242.196762,238.195969 244.531891,248.076935 246.548889,257.967285 
	C240.804764,260.648193 235.450897,263.301483 230.053864,265.491302 
	C229.673981,251.325302 229.868912,237.581512 228.810226,223.934967 
	C228.125320,215.106339 223.629898,207.648117 215.469666,203.178986 
	C201.825653,195.706543 186.226791,198.468613 176.485458,210.994568 
	C172.800583,213.464096 169.262558,215.669449 166.192093,218.400482 
	C158.592880,225.159607 157.070282,234.496704 155.612640,243.838654 
	C152.379349,240.144318 149.864075,236.134521 146.510345,233.030716 
	C140.024704,227.028473 131.680328,227.711700 123.681633,228.051590 
	C112.395348,228.531143 100.142357,240.849548 100.062599,252.092453 
	C99.904358,274.398407 100.106415,296.706909 100.079567,319.476044 
	C100.048401,328.947479 100.097237,337.957214 100.081909,347.407532 
	C100.345047,350.929138 100.591049,354.021423 101.015259,357.089050 
	C102.173027,365.461517 103.091125,373.883759 104.675903,382.177002 
	C107.800041,398.525909 114.800514,413.437897 122.526695,428.032623 
	C124.036919,430.885376 125.250435,433.981110 127.203018,436.497437 
	C132.637436,443.500946 138.101593,450.522491 144.092819,457.041748 
	C150.494919,464.008026 157.162079,470.823029 164.374786,476.922150 
	C169.898788,481.593323 176.398026,485.132324 182.555847,489.028961 
	C201.275772,500.874817 221.783112,507.791840 243.612976,511.070679 
	C244.485565,511.201752 245.207748,512.334167 246.000000,513.000000 
z"/>
<path fill="#FFDC5D" opacity="1.000000" stroke="none" 
	d="
M393.789337,281.045624 
	C396.177368,285.947876 399.193909,290.649994 400.830963,295.791351 
	C405.082916,309.144928 409.203583,322.577332 412.478577,336.194275 
	C415.579224,349.086243 419.065735,362.188507 419.617371,375.314484 
	C420.322235,392.085785 415.464600,408.259277 408.760925,423.814392 
	C403.582581,435.830139 397.142303,447.103546 388.462891,456.677826 
	C374.517822,472.060730 360.059082,487.226929 340.526520,495.736023 
	C329.030457,500.744110 317.154419,504.904114 305.344696,509.155060 
	C301.165924,510.659210 296.677155,511.302277 292.664978,512.669189 
	C277.645782,513.000000 262.291534,513.000000 246.468658,513.000000 
	C245.207748,512.334167 244.485565,511.201752 243.612976,511.070679 
	C221.783112,507.791840 201.275772,500.874817 182.555847,489.028961 
	C176.398026,485.132324 169.898788,481.593323 164.374786,476.922150 
	C157.162079,470.823029 150.494919,464.008026 144.092819,457.041748 
	C138.101593,450.522491 132.637436,443.500946 127.203018,436.497437 
	C125.250435,433.981110 124.036919,430.885376 122.526695,428.032623 
	C114.800514,413.437897 107.800041,398.525909 104.675903,382.177002 
	C103.091125,373.883759 102.173027,365.461517 101.015259,357.089050 
	C100.591049,354.021423 100.345047,350.929138 100.439148,347.419159 
	C101.630562,347.271881 102.494446,347.413055 103.156937,347.855652 
	C123.388702,361.372162 144.798828,359.139038 161.820358,341.730377 
	C162.806061,340.722260 163.947403,339.866364 165.004929,338.949493 
	C174.196213,349.100555 184.702103,355.670837 198.184097,355.958496 
	C212.129700,356.256073 223.743088,350.950378 233.083984,340.525299 
	C234.219818,339.257568 236.890442,337.627289 237.745102,338.112122 
	C247.066345,343.400513 257.188141,341.889252 267.100800,342.027100 
	C275.348419,342.141846 283.598969,342.050598 293.058868,342.050598 
	C282.479004,351.174347 274.257660,360.613556 267.932068,371.652161 
	C255.540039,393.277252 250.276428,416.720276 250.031403,441.435089 
	C249.987946,445.816071 253.182144,448.960632 257.046722,448.936768 
	C260.675385,448.914368 263.688812,445.869873 263.999634,441.835052 
	C264.344055,437.363220 264.662415,432.888885 264.938995,428.412354 
	C266.026428,410.813019 271.134003,394.342133 280.003326,379.236633 
	C291.874847,359.017944 307.367188,343.678131 332.825378,342.624969 
	C338.930481,342.372406 342.343628,338.399384 341.931030,333.992676 
	C341.556396,329.991516 338.331421,328.040253 331.992157,328.034882 
	C306.829041,328.013580 281.662720,328.245697 256.503723,327.916962 
	C234.511826,327.629639 221.511398,303.696564 232.971390,285.048279 
	C239.249176,274.832703 248.900482,271.050659 260.478485,271.060608 
	C295.973633,271.091125 331.468903,271.108643 366.963959,271.042969 
	C374.862976,271.028320 382.121521,272.627869 388.409882,277.716064 
	C389.347900,278.475037 390.807983,278.588867 392.026520,279.001160 
	C392.026520,279.001160 391.989014,279.006958 392.067200,279.237549 
	C392.429047,279.650879 392.712708,279.833649 392.996338,280.016388 
	C392.996338,280.016388 392.998016,280.003510 393.029510,280.238220 
	C393.223511,280.765961 393.466278,280.956848 393.789337,281.045624 
z"/>
<path fill="#FFDC5D" opacity="1.000000" stroke="none" 
	d="
M246.939148,257.939636 
	C244.531891,248.076935 242.196762,238.195969 239.702332,228.355362 
	C234.512817,207.882477 229.254395,187.427032 223.993820,166.972260 
	C221.020248,155.410019 218.063187,143.842651 214.961990,132.314346 
	C209.774887,113.031906 204.259415,93.834709 199.327942,74.487999 
	C197.135406,65.886452 202.201263,48.069023 215.227493,44.899174 
	C219.241791,43.922318 223.016312,41.654404 227.051407,41.123505 
	C241.826111,39.179596 252.613922,50.490700 255.884048,61.219063 
	C261.239258,78.788063 266.143036,96.500481 270.928680,114.235657 
	C275.891235,132.626450 280.442535,151.127823 285.256104,169.559311 
	C289.778564,186.876099 294.450195,204.153946 298.971405,221.471054 
	C300.858063,228.697449 300.960266,228.882324 308.268829,229.003006 
	C311.604309,229.058075 316.849426,230.444046 317.880066,228.936798 
	C320.077759,225.722870 320.186432,221.032822 320.979309,216.914536 
	C323.859100,201.956970 326.693726,186.990616 329.496307,172.018372 
	C332.357788,156.731369 334.996582,141.400589 338.045715,126.151535 
	C340.264771,115.053497 343.043335,104.068352 345.472595,93.010933 
	C346.756683,87.166077 347.461273,81.172325 349.063232,75.422935 
	C353.780731,58.492207 366.465790,53.425171 381.600067,55.226547 
	C403.939209,57.885494 408.448944,78.597855 404.796783,94.694313 
	C402.000610,107.018036 400.255188,119.578903 397.990540,132.024857 
	C395.582794,145.257446 393.130188,158.481949 390.665710,171.704132 
	C389.152679,179.821655 387.603912,187.932724 386.030518,196.038803 
	C382.366425,214.916229 378.679871,233.789291 374.996796,252.663025 
	C374.442383,255.504044 373.857483,258.339111 372.810791,261.542145 
	C363.642700,258.199982 354.603027,256.841187 345.136078,256.918488 
	C318.197052,257.138458 291.254883,256.941711 264.314392,257.038574 
	C258.521637,257.059387 252.730850,257.625000 246.939148,257.939636 
z"/>
<path fill="#EF9846" opacity="1.000000" stroke="none" 
	d="
M246.548889,257.967285 
	C252.730850,257.625000 258.521637,257.059387 264.314392,257.038574 
	C291.254883,256.941711 318.197052,257.138458 345.136078,256.918488 
	C354.603027,256.841187 363.642700,258.199982 372.710175,261.929565 
	C376.323242,264.290283 379.745758,266.416107 382.749146,269.024567 
	C386.034302,271.877777 388.931946,275.177094 392.012512,278.641571 
	C390.807983,278.588867 389.347900,278.475037 388.409882,277.716064 
	C382.121521,272.627869 374.862976,271.028320 366.963959,271.042969 
	C331.468903,271.108643 295.973633,271.091125 260.478485,271.060608 
	C248.900482,271.050659 239.249176,274.832703 232.971390,285.048279 
	C221.511398,303.696564 234.511826,327.629639 256.503723,327.916962 
	C281.662720,328.245697 306.829041,328.013580 331.992157,328.034882 
	C338.331421,328.040253 341.556396,329.991516 341.931030,333.992676 
	C342.343628,338.399384 338.930481,342.372406 332.825378,342.624969 
	C307.367188,343.678131 291.874847,359.017944 280.003326,379.236633 
	C271.134003,394.342133 266.026428,410.813019 264.938995,428.412354 
	C264.662415,432.888885 264.344055,437.363220 263.999634,441.835052 
	C263.688812,445.869873 260.675385,448.914368 257.046722,448.936768 
	C253.182144,448.960632 249.987946,445.816071 250.031403,441.435089 
	C250.276428,416.720276 255.540039,393.277252 267.932068,371.652161 
	C274.257660,360.613556 282.479004,351.174347 293.058868,342.050598 
	C283.598969,342.050598 275.348419,342.141846 267.100800,342.027100 
	C257.188141,341.889252 247.066345,343.400513 237.745102,338.112122 
	C236.890442,337.627289 234.219818,339.257568 233.083984,340.525299 
	C223.743088,350.950378 212.129700,356.256073 198.184097,355.958496 
	C184.702103,355.670837 174.196213,349.100555 165.004929,338.949493 
	C163.947403,339.866364 162.806061,340.722260 161.820358,341.730377 
	C144.798828,359.139038 123.388702,361.372162 103.156937,347.855652 
	C102.494446,347.413055 101.630562,347.271881 100.503311,346.978577 
	C100.097237,337.957214 100.048401,328.947479 100.286850,319.754059 
	C101.028191,320.818451 101.495651,322.061798 101.934250,323.315247 
	C106.857674,337.385742 119.568314,344.595551 135.358093,341.798248 
	C147.242905,339.692719 157.648911,328.353485 157.212341,314.152985 
	C156.696518,297.374176 157.196838,280.566345 157.040146,263.773132 
	C156.978409,257.156799 156.332016,250.545898 155.951843,243.932526 
	C157.070282,234.496704 158.592880,225.159607 166.192093,218.400482 
	C169.262558,215.669449 172.800583,213.464096 176.463287,211.349518 
	C175.186935,217.179626 172.269730,222.658142 172.178131,228.183517 
	C171.706406,256.640259 171.927460,285.109070 171.975159,313.573547 
	C171.995270,325.581451 178.514755,335.698029 188.622635,339.736725 
	C200.227829,344.373688 211.410217,341.924896 220.334183,333.416138 
	C224.246826,329.685577 224.414658,326.789642 221.331970,322.329895 
	C215.701553,314.184296 213.598206,305.049255 214.785019,294.946869 
	C216.171082,283.148438 222.566788,274.331970 230.097031,265.954742 
	C235.450897,263.301483 240.804764,260.648193 246.548889,257.967285 
z"/>
<path fill="#FFDC5D" opacity="1.000000" stroke="none" 
	d="
M230.053864,265.491302 
	C222.566788,274.331970 216.171082,283.148438 214.785019,294.946869 
	C213.598206,305.049255 215.701553,314.184296 221.331970,322.329895 
	C224.414658,326.789642 224.246826,329.685577 220.334183,333.416138 
	C211.410217,341.924896 200.227829,344.373688 188.622635,339.736725 
	C178.514755,335.698029 171.995270,325.581451 171.975159,313.573547 
	C171.927460,285.109070 171.706406,256.640259 172.178131,228.183517 
	C172.269730,222.658142 175.186935,217.179626 176.822937,211.324554 
	C186.226791,198.468613 201.825653,195.706543 215.469666,203.178986 
	C223.629898,207.648117 228.125320,215.106339 228.810226,223.934967 
	C229.868912,237.581512 229.673981,251.325302 230.053864,265.491302 
z"/>
<path fill="#FFDC5D" opacity="1.000000" stroke="none" 
	d="
M155.612640,243.838654 
	C156.332016,250.545898 156.978409,257.156799 157.040146,263.773132 
	C157.196838,280.566345 156.696518,297.374176 157.212341,314.152985 
	C157.648911,328.353485 147.242905,339.692719 135.358093,341.798248 
	C119.568314,344.595551 106.857674,337.385742 101.934250,323.315247 
	C101.495651,322.061798 101.028191,320.818451 100.366852,319.292389 
	C100.106415,296.706909 99.904358,274.398407 100.062599,252.092453 
	C100.142357,240.849548 112.395348,228.531143 123.681633,228.051590 
	C131.680328,227.711700 140.024704,227.028473 146.510345,233.030716 
	C149.864075,236.134521 152.379349,240.144318 155.612640,243.838654 
z"/>
<path fill="#EF9846" opacity="1.000000" stroke="none" 
	d="
M392.949768,279.749420 
	C392.712708,279.833649 392.429047,279.650879 392.070679,279.218872 
	C392.298370,279.140564 392.600800,279.311493 392.949768,279.749420 
z"/>
<path fill="#EF9846" opacity="1.000000" stroke="none" 
	d="
M393.822144,280.782806 
	C393.466278,280.956848 393.223511,280.765961 393.023651,280.239166 
	C393.275848,280.176910 393.565369,280.348450 393.822144,280.782806 
z"/>
</svg>